# xmcd
#
# Track frame offsets:
#	150
#	3937
#	19857
#	39315
#	71037
#	86680
#	108315
#	126937
#	148107
#	164302
#	178297
#	184150
#
# Disc length: 2536 seconds
#
# Revision: 1
# Processed by: cddbd v1.5.1PL0 Copyright (c) Steve Scherf et al.
# Submitted via: audiograbber 1.83.01
#
DISCID=a309e60c
DTITLE=Shivaree - I ougta give you a shot in the Head
DYEAR=1996
DGENRE=
TTITLE0=Cannibal King
TTITLE1=Bossa Nova
TTITLE2=Daring Lousy Guy
TTITLE3=Arlington Girl
TTITLE4=Oh, no
TTITLE5=Lunch
TTITLE6=Goodnight Moon
TTITLE7=I Don't Care
TTITLE8=Pimp
TTITLE9=Idiot Walz
TTITLE10=Ash Wednesday
TTITLE11=Arriverderci
EXTD=
EXTT0=
EXTT1=
EXTT2=
EXTT3=
EXTT4=
EXTT5=
EXTT6=
EXTT7=
EXTT8=
EXTT9=
EXTT10=
EXTT11=
PLAYORDER=
